<svg version="1.2" xmlns="http://www.w3.org/2000/svg" viewBox="0 0 590 590" width="590" height="590">
	<title>4958427-ai</title>
	<defs>
		<linearGradient id="g1" x1="61.6" y1="507" x2="61.6" y2="357.4" gradientUnits="userSpaceOnUse">
			<stop offset="0" stop-color="#f05b39"/>
			<stop offset="1" stop-color="#f16b57"/>
		</linearGradient>
		<linearGradient id="g2" x1="134.2" y1="544.1" x2="134.2" y2="365.9" gradientUnits="userSpaceOnUse">
			<stop offset="0" stop-color="#f05b39"/>
			<stop offset="1" stop-color="#f16b57"/>
		</linearGradient>
		<linearGradient id="g3" x1="127.8" y1="535.6" x2="127.8" y2="290.4" gradientUnits="userSpaceOnUse">
			<stop offset="0" stop-color="#f05b39"/>
			<stop offset="1" stop-color="#f16b57"/>
		</linearGradient>
		<linearGradient id="g4" x1="2.8" y1="292.5" x2="322.1" y2="51.4" gradientUnits="userSpaceOnUse">
			<stop offset="0" stop-color="#fefefe"/>
			<stop offset="1" stop-color="#b0cbe9"/>
		</linearGradient>
		<linearGradient id="g5" x1="12.3" y1="584.4" x2="12.3" y2="14.8" gradientUnits="userSpaceOnUse">
			<stop offset="0" stop-color="#f9a332"/>
			<stop offset="1" stop-color="#f16b57"/>
		</linearGradient>
		<linearGradient id="g6" x1="563.8" y1="162.6" x2="376.1" y2="355.3" gradientUnits="userSpaceOnUse">
			<stop offset=".2" stop-color="#b0cbe9"/>
			<stop offset=".9" stop-color="#fefefe"/>
		</linearGradient>
		<linearGradient id="g7" x1="584.1" y1="387.3" x2="504.2" y2="537.2" gradientUnits="userSpaceOnUse">
			<stop offset="0" stop-color="#f9a332"/>
			<stop offset="1" stop-color="#f16b57"/>
		</linearGradient>
	</defs>
	<style>
		.s0 { fill: url(#g1) } 
		.s1 { fill: url(#g2) } 
		.s2 { fill: url(#g3) } 
		.s3 { fill: url(#g4) } 
		.s4 { fill: url(#g5) } 
		.s5 { fill: url(#g6) } 
		.s6 { fill: url(#g7) } 
	</style>
	<g id="BACKGROUND">
		<g id="&lt;Group&gt;">
		</g>
	</g>
	<g id="OBJECTS">
		<g id="&lt;Group&gt;">
			<g id="&lt;Group&gt;">
			</g>
			<g id="&lt;Group&gt;">
				<g id="&lt;Group&gt;">
					<path id="&lt;Path&gt;" class="s0" d="m192.1 410.9v54.8h-74.8v-106.5l11.6-11.6z"/>
				</g>
				<g id="&lt;Group&gt;">
					<path id="&lt;Path&gt;" class="s1" d="m303.7 354.2v140.7h-74.8v-65.8z"/>
				</g>
				<path id="&lt;Path&gt;" class="s2" d="m415.3 306.1v161.8h-74.8v-150.4l43.1-43.1z"/>
				<path id="&lt;Path&gt;" class="s3" d="m65 363.4l-30-30 93.9-93.9 90.7 90.7 154.3-154.3 30 30.1-184.3 184.3-90.7-90.8z"/>
				<path id="&lt;Compound Path&gt;" fill-rule="evenodd" class="s4" d="m565.2 486.9c22.3 22.3 22.3 58.5 0 80.8-22.3 22.3-58.5 22.3-80.8 0l-85.7-85.7c-39.7 24.8-86.8 38.9-137.3 38.3-136.7-1.8-248.1-113.7-249.3-250.5-1.3-141.4 113.6-256.3 255-255 136.7 1.2 248.6 112.5 250.5 249.2 0.7 50.4-13.4 97.4-38.2 137.1zm-96-215.5c2.1-115.9-92.3-210.3-208.2-208.2-109.3 2.1-198.4 91.2-200.5 200.5-2.1 115.9 92.3 210.3 208.2 208.2 109.3-2.1 198.4-91.2 200.5-200.5z"/>
				<path id="&lt;Path&gt;" class="s5" d="m461.4 118.5l-36.4 149.3-112.9-113z"/>
				<path id="&lt;Path&gt;" class="s6" d="m479.4 401.1l12.6 12.6c-11.7 38.7-32.4 73.5-59.6 102q-16.9-16.9-33.7-33.7 0.2-0.2 0.5-0.4c32.2-20.4 59.5-47.7 79.8-79.9q0.2-0.3 0.4-0.6z"/>
			</g>
		</g>
	</g>
</svg>